<svg xmlns="http://www.w3.org/2000/svg" xmlns:xlink="http://www.w3.org/1999/xlink" xmlns:lucid="lucid" width="1065.85" height="1136.73"><g transform="translate(-419.5 684.2292177250631)" lucid:page-tab-id="0_0"><path d="M0-1000h1500V500H0z" fill="#fff"/><path d="M1200-12a8 8 0 0 1 8-8h248.85a8 8 0 0 1 8 8v184a8 8 0 0 1-8 8H1208a8 8 0 0 1-8-8z" fill="#fff"/><path d="M1200-12a8 8 0 0 1 8-8h248.85a8 8 0 0 1 8 8v184a8 8 0 0 1-8 8H1208a8 8 0 0 1-8-8zM1200 20h264.85M1244 20v160M1353.95 20v160" stroke="#3a414a" fill="none"/><use xlink:href="#a" transform="matrix(1,0,0,1,1210,-20) translate(91.575 23.6)"/><use xlink:href="#b" transform="matrix(1,0,0,1,1205,22.5) translate(5 17.1)"/><use xlink:href="#c" transform="matrix(1,0,0,1,1249,22.5) translate(11.600000000000001 17.1)"/><use xlink:href="#d" transform="matrix(1,0,0,1,1358.95,22.5) translate(41.025 17.1)"/><use xlink:href="#e" transform="matrix(1,0,0,1,1249,54.5) translate(27.525 17.1)"/><use xlink:href="#f" transform="matrix(1,0,0,1,1358.95,54.5) translate(4.599999999999994 17.1)"/><use xlink:href="#g" transform="matrix(1,0,0,1,1249,86.5) translate(19.525 17.1)"/><use xlink:href="#f" transform="matrix(1,0,0,1,1358.95,86.5) translate(4.599999999999994 17.1)"/><use xlink:href="#h" transform="matrix(1,0,0,1,1249,118.5) translate(5.024999999999999 17.1)"/><use xlink:href="#f" transform="matrix(1,0,0,1,1358.95,118.5) translate(4.599999999999994 17.1)"/><use xlink:href="#i" transform="matrix(1,0,0,1,1249,150.5) translate(23.549999999999997 17.1)"/><use xlink:href="#j" transform="matrix(1,0,0,1,1358.95,150.5) translate(5.049999999999997 17.1)"/><path d="M440-232a8 8 0 0 1 8-8h323.7a8 8 0 0 1 8 8V48a8 8 0 0 1-8 8H448a8 8 0 0 1-8-8z" fill="#fff"/><path d="M440-232a8 8 0 0 1 8-8h323.7a8 8 0 0 1 8 8V48a8 8 0 0 1-8 8H448a8 8 0 0 1-8-8zM440-200h339.7M484-200V56M668.8-200V56" stroke="#3a414a" fill="none"/><use xlink:href="#k" transform="matrix(1,0,0,1,450,-240) translate(106.05 23.6)"/><use xlink:href="#b" transform="matrix(1,0,0,1,445,-197.5) translate(5 17.1)"/><use xlink:href="#l" transform="matrix(1,0,0,1,489,-197.5) translate(26.074999999999996 17.1)"/><use xlink:href="#d" transform="matrix(1,0,0,1,673.8,-197.5) translate(41.025 17.1)"/><use xlink:href="#m" transform="matrix(1,0,0,1,445,-165.5) translate(5.524999999999999 17.1)"/><use xlink:href="#n" transform="matrix(1,0,0,1,489,-165.5) translate(38.574999999999996 17.1)"/><use xlink:href="#d" transform="matrix(1,0,0,1,673.8,-165.5) translate(41.025 17.1)"/><use xlink:href="#m" transform="matrix(1,0,0,1,445,-133.5) translate(5.524999999999999 17.1)"/><use xlink:href="#c" transform="matrix(1,0,0,1,489,-133.5) translate(49.1 17.1)"/><use xlink:href="#d" transform="matrix(1,0,0,1,673.8,-133.5) translate(41.025 17.1)"/><use xlink:href="#m" transform="matrix(1,0,0,1,445,-101.5) translate(5.524999999999999 17.1)"/><use xlink:href="#o" transform="matrix(1,0,0,1,489,-101.5) translate(63.525 17.1)"/><use xlink:href="#d" transform="matrix(1,0,0,1,673.8,-101.5) translate(41.025 17.1)"/><use xlink:href="#m" transform="matrix(1,0,0,1,445,-69.5) translate(5.524999999999999 17.1)"/><use xlink:href="#p" transform="matrix(1,0,0,1,489,-69.5) translate(29.599999999999994 17.1)"/><use xlink:href="#d" transform="matrix(1,0,0,1,673.8,-69.5) translate(41.025 17.1)"/><use xlink:href="#q" transform="matrix(1,0,0,1,489,-37.5) translate(48.05 17.1)"/><use xlink:href="#r" transform="matrix(1,0,0,1,673.8,-37.5) translate(16.049999999999997 17.1)"/><use xlink:href="#s" transform="matrix(1,0,0,1,489,-5.5) translate(5.1000000000000085 17.1)"/><use xlink:href="#r" transform="matrix(1,0,0,1,673.8,-5.5) translate(16.049999999999997 17.1)"/><use xlink:href="#t" transform="matrix(1,0,0,1,489,26.5) translate(46.55 17.1)"/><use xlink:href="#j" transform="matrix(1,0,0,1,673.8,26.5) translate(5.049999999999997 17.1)"/><path d="M540 168a8 8 0 0 1 8-8h267.65a8 8 0 0 1 8 8v216a8 8 0 0 1-8 8H548a8 8 0 0 1-8-8z" fill="#fff"/><path d="M540 168a8 8 0 0 1 8-8h267.65a8 8 0 0 1 8 8v216a8 8 0 0 1-8 8H548a8 8 0 0 1-8-8zM540 200h283.65M584 200v192M701.85 200v192" stroke="#3a414a" fill="none"/><use xlink:href="#u" transform="matrix(1,0,0,1,550,160) translate(90.55 23.6)"/><use xlink:href="#b" transform="matrix(1,0,0,1,545,202.5) translate(5 17.1)"/><use xlink:href="#n" transform="matrix(1,0,0,1,589,202.5) translate(5.074999999999996 17.1)"/><use xlink:href="#d" transform="matrix(1,0,0,1,706.85,202.5) translate(46.525 17.1)"/><use xlink:href="#m" transform="matrix(1,0,0,1,545,234.5) translate(5.524999999999999 17.1)"/><use xlink:href="#c" transform="matrix(1,0,0,1,589,234.5) translate(15.600000000000001 17.1)"/><use xlink:href="#d" transform="matrix(1,0,0,1,706.85,234.5) translate(46.525 17.1)"/><use xlink:href="#e" transform="matrix(1,0,0,1,589,266.5) translate(31.525 17.1)"/><use xlink:href="#f" transform="matrix(1,0,0,1,706.85,266.5) translate(10.099999999999994 17.1)"/><use xlink:href="#v" transform="matrix(1,0,0,1,589,298.5) translate(22.025 17.1)"/><use xlink:href="#w" transform="matrix(1,0,0,1,706.85,298.5) translate(5.099999999999994 17.1)"/><use xlink:href="#x" transform="matrix(1,0,0,1,589,330.5) translate(32.574999999999996 17.1)"/><use xlink:href="#w" transform="matrix(1,0,0,1,706.85,330.5) translate(5.099999999999994 17.1)"/><use xlink:href="#y" transform="matrix(1,0,0,1,589,362.5) translate(29 17.1)"/><use xlink:href="#f" transform="matrix(1,0,0,1,706.85,362.5) translate(10.099999999999994 17.1)"/><path d="M500-556a8 8 0 0 1 8-8h271.65a8 8 0 0 1 8 8v216a8 8 0 0 1-8 8H508a8 8 0 0 1-8-8z" fill="#fff"/><path d="M500-556a8 8 0 0 1 8-8h271.65a8 8 0 0 1 8 8v216a8 8 0 0 1-8 8H508a8 8 0 0 1-8-8zM500-524h287.65M544-524v192M665.85-524v192" stroke="#3a414a" fill="none"/><use xlink:href="#z" transform="matrix(1,0,0,1,510,-564) translate(90.55 23.6)"/><use xlink:href="#b" transform="matrix(1,0,0,1,505,-521.5) translate(5 17.1)"/><use xlink:href="#A" transform="matrix(1,0,0,1,549,-521.5) translate(5.074999999999996 17.1)"/><use xlink:href="#d" transform="matrix(1,0,0,1,670.85,-521.5) translate(46.525 17.1)"/><use xlink:href="#m" transform="matrix(1,0,0,1,505,-489.5) translate(5.524999999999999 17.1)"/><use xlink:href="#B" transform="matrix(1,0,0,1,549,-489.5) translate(29.075 17.1)"/><use xlink:href="#d" transform="matrix(1,0,0,1,670.85,-489.5) translate(46.525 17.1)"/><use xlink:href="#e" transform="matrix(1,0,0,1,549,-457.5) translate(33.525 17.1)"/><use xlink:href="#f" transform="matrix(1,0,0,1,670.85,-457.5) translate(10.099999999999994 17.1)"/><use xlink:href="#v" transform="matrix(1,0,0,1,549,-425.5) translate(24.025 17.1)"/><use xlink:href="#w" transform="matrix(1,0,0,1,670.85,-425.5) translate(5.099999999999994 17.1)"/><use xlink:href="#x" transform="matrix(1,0,0,1,549,-393.5) translate(34.574999999999996 17.1)"/><use xlink:href="#w" transform="matrix(1,0,0,1,670.85,-393.5) translate(5.099999999999994 17.1)"/><use xlink:href="#y" transform="matrix(1,0,0,1,549,-361.5) translate(31 17.1)"/><use xlink:href="#f" transform="matrix(1,0,0,1,670.85,-361.5) translate(10.099999999999994 17.1)"/><path d="M1020-655.73a8 8 0 0 1 8-8h256.65a8 8 0 0 1 8 8v152a8 8 0 0 1-8 8H1028a8 8 0 0 1-8-8z" fill="#fff"/><path d="M1020-655.73a8 8 0 0 1 8-8h256.65a8 8 0 0 1 8 8v152a8 8 0 0 1-8 8H1028a8 8 0 0 1-8-8zM1020-623.73h272.65M1064-623.73v128M1170.85-623.73v128" stroke="#3a414a" fill="none"/><use xlink:href="#C" transform="matrix(1,0,0,1,1030,-663.7292177250631) translate(109.5 23.6)"/><use xlink:href="#b" transform="matrix(1,0,0,1,1025,-621.2292177250631) translate(5 17.1)"/><use xlink:href="#D" transform="matrix(1,0,0,1,1069,-621.2292177250631) translate(24.025 17.1)"/><use xlink:href="#d" transform="matrix(1,0,0,1,1175.85,-621.2292177250631) translate(46.525 17.1)"/><use xlink:href="#E" transform="matrix(1,0,0,1,1069,-589.2292177250631) translate(31.5 17.1)"/><use xlink:href="#F" transform="matrix(1,0,0,1,1175.85,-589.2292177250631) translate(10.099999999999994 17.1)"/><use xlink:href="#G" transform="matrix(1,0,0,1,1069,-557.2292177250631) translate(32 17.1)"/><use xlink:href="#H" transform="matrix(1,0,0,1,1175.85,-557.2292177250631) translate(25.074999999999996 17.1)"/><use xlink:href="#I" transform="matrix(1,0,0,1,1069,-525.2292177250631) translate(5.074999999999996 17.1)"/><use xlink:href="#w" transform="matrix(1,0,0,1,1175.85,-525.2292177250631) translate(5.099999999999994 17.1)"/><path d="M1080 208a8 8 0 0 1 8-8h282.65a8 8 0 0 1 8 8v216a8 8 0 0 1-8 8H1088a8 8 0 0 1-8-8z" fill="#fff"/><path d="M1080 208a8 8 0 0 1 8-8h282.65a8 8 0 0 1 8 8v216a8 8 0 0 1-8 8H1088a8 8 0 0 1-8-8zM1080 240h298.65M1124 240v192M1266.85 240v192" stroke="#3a414a" fill="none"/><use xlink:href="#J" transform="matrix(1,0,0,1,1090,200) translate(100.525 23.6)"/><use xlink:href="#b" transform="matrix(1,0,0,1,1085,242.5) translate(5 17.1)"/><use xlink:href="#K" transform="matrix(1,0,0,1,1129,242.5) translate(20.049999999999997 17.1)"/><use xlink:href="#d" transform="matrix(1,0,0,1,1271.85,242.5) translate(41.525 17.1)"/><use xlink:href="#m" transform="matrix(1,0,0,1,1085,274.5) translate(5.524999999999999 17.1)"/><use xlink:href="#L" transform="matrix(1,0,0,1,1129,274.5) translate(16.574999999999996 17.1)"/><use xlink:href="#d" transform="matrix(1,0,0,1,1271.85,274.5) translate(41.525 17.1)"/><use xlink:href="#m" transform="matrix(1,0,0,1,1085,306.5) translate(5.524999999999999 17.1)"/><use xlink:href="#l" transform="matrix(1,0,0,1,1129,306.5) translate(5.074999999999996 17.1)"/><use xlink:href="#d" transform="matrix(1,0,0,1,1271.85,306.5) translate(41.525 17.1)"/><use xlink:href="#M" transform="matrix(1,0,0,1,1129,338.5) translate(36.525 17.1)"/><use xlink:href="#H" transform="matrix(1,0,0,1,1271.85,338.5) translate(20.074999999999996 17.1)"/><use xlink:href="#N" transform="matrix(1,0,0,1,1129,370.5) translate(36.525 17.1)"/><use xlink:href="#F" transform="matrix(1,0,0,1,1271.85,370.5) translate(5.099999999999994 17.1)"/><use xlink:href="#q" transform="matrix(1,0,0,1,1129,402.5) translate(27.049999999999997 17.1)"/><use xlink:href="#r" transform="matrix(1,0,0,1,1271.85,402.5) translate(16.549999999999997 17.1)"/><path d="M1120-428a8 8 0 0 1 8-8h213.65a8 8 0 0 1 8 8v88a8 8 0 0 1-8 8H1128a8 8 0 0 1-8-8z" fill="#fff"/><path d="M1120-428a8 8 0 0 1 8-8h213.65a8 8 0 0 1 8 8v88a8 8 0 0 1-8 8H1128a8 8 0 0 1-8-8zM1120-396h229.65M1164-396v64M1237.85-396v64" stroke="#3a414a" fill="none"/><use xlink:href="#O" transform="matrix(1,0,0,1,1130,-436) translate(85.55 23.6)"/><use xlink:href="#b" transform="matrix(1,0,0,1,1125,-393.5) translate(5 17.1)"/><use xlink:href="#B" transform="matrix(1,0,0,1,1169,-393.5) translate(5.074999999999999 17.1)"/><use xlink:href="#d" transform="matrix(1,0,0,1,1242.85,-393.5) translate(41.525 17.1)"/><use xlink:href="#P" transform="matrix(1,0,0,1,1169,-361.5) translate(17.05 17.1)"/><use xlink:href="#f" transform="matrix(1,0,0,1,1242.85,-361.5) translate(5.099999999999994 17.1)"/><path d="M1100-264.27a8 8 0 0 1 8-8h310.6a8 8 0 0 1 8 8v216a8 8 0 0 1-8 8H1108a8 8 0 0 1-8-8z" fill="#fff"/><path d="M1100-264.27a8 8 0 0 1 8-8h310.6a8 8 0 0 1 8 8v216a8 8 0 0 1-8 8H1108a8 8 0 0 1-8-8zM1100-232.27h326.6M1144-232.27v192M1315.7-232.27v192" stroke="#3a414a" fill="none"/><use xlink:href="#Q" transform="matrix(1,0,0,1,1110,-272.2707822749369) translate(111.05 23.6)"/><use xlink:href="#b" transform="matrix(1,0,0,1,1105,-229.7707822749369) translate(5 17.1)"/><use xlink:href="#L" transform="matrix(1,0,0,1,1149,-229.7707822749369) translate(31.074999999999996 17.1)"/><use xlink:href="#d" transform="matrix(1,0,0,1,1320.7,-229.7707822749369) translate(41.025 17.1)"/><use xlink:href="#m" transform="matrix(1,0,0,1,1105,-197.7707822749369) translate(5.524999999999999 17.1)"/><use xlink:href="#l" transform="matrix(1,0,0,1,1149,-197.7707822749369) translate(19.574999999999996 17.1)"/><use xlink:href="#d" transform="matrix(1,0,0,1,1320.7,-197.7707822749369) translate(41.025 17.1)"/><use xlink:href="#R" transform="matrix(1,0,0,1,1149,-165.7707822749369) translate(43.05 17.1)"/><use xlink:href="#j" transform="matrix(1,0,0,1,1320.7,-165.7707822749369) translate(5.049999999999997 17.1)"/><use xlink:href="#S" transform="matrix(1,0,0,1,1149,-133.7707822749369) translate(37.574999999999996 17.1)"/><use xlink:href="#j" transform="matrix(1,0,0,1,1320.7,-133.7707822749369) translate(5.049999999999997 17.1)"/><use xlink:href="#T" transform="matrix(1,0,0,1,1149,-101.77078227493689) translate(5.150000000000006 17.1)"/><use xlink:href="#U" transform="matrix(1,0,0,1,1320.7,-101.77078227493689) translate(18.525 17.1)"/><use xlink:href="#G" transform="matrix(1,0,0,1,1149,-69.77078227493689) translate(64.5 17.1)"/><use xlink:href="#H" transform="matrix(1,0,0,1,1320.7,-69.77078227493689) translate(19.574999999999996 17.1)"/><path d="M800.2-196h253.93a5.87 5.87 0 0 1 5.87 5.87 5.87 5.87 0 0 0 5.87 5.86h13.63" stroke="#3a414a" fill="none"/><path d="M790.2-186v-20M780.2-196h20M800.2-186v-20M1089.5-194.27v20M1099.5-184.27h-20M1079.5-194.27v20" stroke="#3a414a" fill="#fff"/><path d="M844.15 215.8H888a12 12 0 0 0 12-12V-140.2a12 12 0 0 0-12-12h-68.3" stroke="#3a414a" fill="none"/><path d="M834.15 225.8v-20M824.15 215.8h20M844.15 225.8v-20" stroke="#3a414a" fill="#fff"/><path d="M780.42-162.18l20 10-20 10" stroke="#3a414a" fill="#fff" fill-opacity="0"/><path d="M780.42-152.18h20M820.42-152.18c0 5.53-4.47 10-10 10-5.52 0-10-4.47-10-10 0-5.52 4.48-10 10-10 5.53 0 10 4.48 10 10" stroke="#3a414a" fill="#fff"/><path d="M1179.5 19.07h-177.65a12 12 0 0 1-12-12V-108.1a12 12 0 0 0-12-12H819.7" stroke="#3a414a" fill="none"/><path d="M1189.5 9.06v20M1199.5 19.07h-20M1179.5 9.06v20" stroke="#3a414a" fill="#fff"/><path d="M780.42-130.08l20 10-20 10" stroke="#3a414a" fill="#fff" fill-opacity="0"/><path d="M780.42-120.08h20M820.42-120.08c0 5.52-4.47 10-10 10-5.52 0-10-4.48-10-10 0-5.53 4.48-10 10-10 5.53 0 10 4.48 10 10" stroke="#3a414a" fill="#fff"/><path d="M808.15-517.5H988a12 12 0 0 1 12 12V-100a12 12 0 0 1-12 12H819.7" stroke="#3a414a" fill="none"/><path d="M798.15-507.5v-20M788.15-517.5h20M808.15-507.5v-20" stroke="#3a414a" fill="#fff"/><path d="M780.42-98l20 10-20 10" stroke="#3a414a" fill="#fff" fill-opacity="0"/><path d="M780.42-88h20M820.42-88c0 5.53-4.47 10-10 10-5.52 0-10-4.47-10-10 0-5.5 4.48-10 10-10 5.53 0 10 4.5 10 10" stroke="#3a414a" fill="#fff"/><path d="M808.15-508.2H848a12 12 0 0 1 12 12v428.3a12 12 0 0 1-12 12h-28.3" stroke="#3a414a" fill="none"/><path d="M798.15-498.2v-20M788.15-508.2h20M808.15-498.2v-20" stroke="#3a414a" fill="#fff"/><path d="M780.42-65.9l20 10-20 10" stroke="#3a414a" fill="#fff" fill-opacity="0"/><path d="M780.42-55.9h20M820.42-55.9c0 5.53-4.47 10-10 10-5.52 0-10-4.47-10-10 0-5.52 4.48-10 10-10 5.53 0 10 4.48 10 10" stroke="#3a414a" fill="#fff"/><path d="M827.65-476.1h114.18a12 12 0 0 1 12 12v72.12a12 12 0 0 0 12 12h133.67" stroke="#3a414a" fill="none"/><path d="M788.37-486.1l20 10-20 10" stroke="#3a414a" fill="#fff" fill-opacity="0"/><path d="M788.37-476.1h20M828.37-476.1c0 5.53-4.47 10-10 10-5.52 0-10-4.47-10-10 0-5.52 4.48-10 10-10 5.53 0 10 4.48 10 10M1109.5-389.98v20M1119.5-379.98h-20M1099.5-389.98v20" stroke="#3a414a" fill="#fff"/><path d="M1060-216.45h-8.5a12 12 0 0 0-12 12V287.4a.5.5 0 0 0 .5.5" stroke="#3a414a" fill="none"/><path d="M1089.5-226.45v20M1099.5-216.45h-20M1079.5-216.45c0 5.52-4.48 10-10 10s-10-4.48-10-10c0-5.53 4.48-10 10-10s10 4.47 10 10" stroke="#3a414a" fill="#fff"/><path d="M1079.28 297.9l-20-10 20-10" stroke="#3a414a" fill="#fff" fill-opacity="0"/><path d="M1079.28 287.9h-20M1059.28 287.9c0 5.53-4.48 10-10 10-5.53 0-10-4.47-10-10 0-5.52 4.47-10 10-10 5.52 0 10 4.48 10 10" stroke="#3a414a" fill="#fff"/><path d="M1160 35.83h-136.17a12 12 0 0 0-12 12V234a12 12 0 0 1-12 12H844.14" stroke="#3a414a" fill="none"/><path d="M1199.28 45.83l-20-10 20-10" stroke="#3a414a" fill="#fff" fill-opacity="0"/><path d="M1199.28 35.83h-20M1179.28 35.83c0 5.53-4.48 10-10 10-5.53 0-10-4.47-10-10 0-5.52 4.47-10 10-10 5.52 0 10 4.48 10 10M834.15 256v-20M824.15 246h20M844.15 256v-20" stroke="#3a414a" fill="#fff"/><path d="M1040 320h-98.15a12 12 0 0 1-12-12v-470a12 12 0 0 0-12-12H819.7" stroke="#3a414a" fill="none"/><path d="M1079.28 330l-20-10 20-10" stroke="#3a414a" fill="#fff" fill-opacity="0"/><path d="M1079.28 320h-20M1059.28 320c0 5.54-4.48 10-10 10-5.53 0-10-4.46-10-10 0-5.5 4.47-10 10-10 5.52 0 10 4.5 10 10M790.2-164v-20M780.2-174h20M820.2-174c0 5.52-4.48 10-10 10s-10-4.48-10-10 4.48-10 10-10 10 4.48 10 10" stroke="#3a414a" fill="#fff"/><defs><path fill="#3a414a" d="M141-36C126-15 110 5 73 4 37 3 15-17 15-53c-1-64 63-63 125-63 3-35-9-54-41-54-24 1-41 7-42 31l-33-3c5-37 33-52 76-52 45 0 72 20 72 64v82c-1 20 7 32 28 27v20c-31 9-61-2-59-35zM48-53c0 20 12 33 32 33 41-3 63-29 60-74-43 2-92-5-92 41" id="V"/><path fill="#3a414a" d="M117-194c89-4 53 116 60 194h-32v-121c0-31-8-49-39-48C34-167 62-67 57 0H25l-1-190h30c1 10-1 24 2 32 11-22 29-35 61-36" id="W"/><path fill="#3a414a" d="M24-231v-30h32v30H24zM24 0v-190h32V0H24" id="X"/><path fill="#3a414a" d="M210-169c-67 3-38 105-44 169h-31v-121c0-29-5-50-35-48C34-165 62-65 56 0H25l-1-190h30c1 10-1 24 2 32 10-44 99-50 107 0 11-21 27-35 58-36 85-2 47 119 55 194h-31v-121c0-29-5-49-35-48" id="Y"/><path fill="#3a414a" d="M24 0v-261h32V0H24" id="Z"/><path fill="#3a414a" d="M135-143c-3-34-86-38-87 0 15 53 115 12 119 90S17 21 10-45l28-5c4 36 97 45 98 0-10-56-113-15-118-90-4-57 82-63 122-42 12 7 21 19 24 35" id="aa"/><g id="a"><use transform="matrix(0.05,0,0,0.05,0,0)" xlink:href="#V"/><use transform="matrix(0.05,0,0,0.05,10,0)" xlink:href="#W"/><use transform="matrix(0.05,0,0,0.05,20,0)" xlink:href="#X"/><use transform="matrix(0.05,0,0,0.05,23.95,0)" xlink:href="#Y"/><use transform="matrix(0.05,0,0,0.05,38.9,0)" xlink:href="#V"/><use transform="matrix(0.05,0,0,0.05,48.9,0)" xlink:href="#Z"/><use transform="matrix(0.05,0,0,0.05,52.85,0)" xlink:href="#aa"/></g><path fill="#3a414a" d="M30-248c87 1 191-15 191 75 0 78-77 80-158 76V0H30v-248zm33 125c57 0 124 11 124-50 0-59-68-47-124-48v98" id="ab"/><path fill="#3a414a" d="M194 0L95-120 63-95V0H30v-248h33v124l119-124h40L117-140 236 0h-42" id="ac"/><g id="b"><use transform="matrix(0.05,0,0,0.05,0,0)" xlink:href="#ab"/><use transform="matrix(0.05,0,0,0.05,12,0)" xlink:href="#ac"/></g><path fill="#3a414a" d="M-5 72V49h209v23H-5" id="ad"/><path fill="#3a414a" d="M85-194c31 0 48 13 60 33l-1-100h32l1 261h-30c-2-10 0-23-3-31C134-8 116 4 85 4 32 4 16-35 15-94c0-66 23-100 70-100zm9 24c-40 0-46 34-46 75 0 40 6 74 45 74 42 0 51-32 51-76 0-42-9-74-50-73" id="ae"/><g id="c"><use transform="matrix(0.05,0,0,0.05,0,0)" xlink:href="#V"/><use transform="matrix(0.05,0,0,0.05,10,0)" xlink:href="#W"/><use transform="matrix(0.05,0,0,0.05,20,0)" xlink:href="#X"/><use transform="matrix(0.05,0,0,0.05,23.95,0)" xlink:href="#Y"/><use transform="matrix(0.05,0,0,0.05,38.9,0)" xlink:href="#V"/><use transform="matrix(0.05,0,0,0.05,48.9,0)" xlink:href="#Z"/><use transform="matrix(0.05,0,0,0.05,52.85,0)" xlink:href="#ad"/><use transform="matrix(0.05,0,0,0.05,62.85,0)" xlink:href="#X"/><use transform="matrix(0.05,0,0,0.05,66.8,0)" xlink:href="#ae"/></g><path fill="#3a414a" d="M59-47c-2 24 18 29 38 22v24C64 9 27 4 27-40v-127H5v-23h24l9-43h21v43h35v23H59v120" id="af"/><g id="d"><use transform="matrix(0.05,0,0,0.05,0,0)" xlink:href="#X"/><use transform="matrix(0.05,0,0,0.05,3.95,0)" xlink:href="#W"/><use transform="matrix(0.05,0,0,0.05,13.949999999999998,0)" xlink:href="#af"/></g><path fill="#3a414a" d="M100-194c63 0 86 42 84 106H49c0 40 14 67 53 68 26 1 43-12 49-29l28 8c-11 28-37 45-77 45C44 4 14-33 15-96c1-61 26-98 85-98zm52 81c6-60-76-77-97-28-3 7-6 17-6 28h103" id="ag"/><g id="e"><use transform="matrix(0.05,0,0,0.05,0,0)" xlink:href="#W"/><use transform="matrix(0.05,0,0,0.05,10,0)" xlink:href="#V"/><use transform="matrix(0.05,0,0,0.05,20,0)" xlink:href="#Y"/><use transform="matrix(0.05,0,0,0.05,34.95,0)" xlink:href="#ag"/></g><path fill="#3a414a" d="M108 0H70L1-190h34L89-25l56-165h34" id="ah"/><path fill="#3a414a" d="M114-163C36-179 61-72 57 0H25l-1-190h30c1 12-1 29 2 39 6-27 23-49 58-41v29" id="ai"/><path fill="#3a414a" d="M96-169c-40 0-48 33-48 73s9 75 48 75c24 0 41-14 43-38l32 2c-6 37-31 61-74 61-59 0-76-41-82-99-10-93 101-131 147-64 4 7 5 14 7 22l-32 3c-4-21-16-35-41-35" id="aj"/><path fill="#3a414a" d="M106-169C34-169 62-67 57 0H25v-261h32l-1 103c12-21 28-36 61-36 89 0 53 116 60 194h-32v-121c2-32-8-49-39-48" id="ak"/><path fill="#3a414a" d="M87 75C49 33 22-17 22-94c0-76 28-126 65-167h31c-38 41-64 92-64 168S80 34 118 75H87" id="al"/><path fill="#3a414a" d="M54-142c48-35 137-8 131 61C196 18 31 33 14-55l32-4c7 23 22 37 52 37 35-1 51-22 54-58 4-55-73-65-99-34H22l8-134h141v27H59" id="am"/><path fill="#3a414a" d="M101-251c68 0 85 55 85 127S166 4 100 4C33 4 14-52 14-124c0-73 17-127 87-127zm-1 229c47 0 54-49 54-102s-4-102-53-102c-51 0-55 48-55 102 0 53 5 102 54 102" id="an"/><path fill="#3a414a" d="M33-261c38 41 65 92 65 168S71 34 33 75H2C39 34 66-17 66-93S39-220 2-261h31" id="ao"/><g id="f"><use transform="matrix(0.05,0,0,0.05,0,0)" xlink:href="#ah"/><use transform="matrix(0.05,0,0,0.05,9,0)" xlink:href="#V"/><use transform="matrix(0.05,0,0,0.05,19,0)" xlink:href="#ai"/><use transform="matrix(0.05,0,0,0.05,24.95,0)" xlink:href="#aj"/><use transform="matrix(0.05,0,0,0.05,33.95,0)" xlink:href="#ak"/><use transform="matrix(0.05,0,0,0.05,43.95,0)" xlink:href="#V"/><use transform="matrix(0.05,0,0,0.05,53.95,0)" xlink:href="#ai"/><use transform="matrix(0.05,0,0,0.05,59.900000000000006,0)" xlink:href="#al"/><use transform="matrix(0.05,0,0,0.05,65.85000000000001,0)" xlink:href="#am"/><use transform="matrix(0.05,0,0,0.05,75.85000000000001,0)" xlink:href="#an"/><use transform="matrix(0.05,0,0,0.05,85.85000000000001,0)" xlink:href="#ao"/></g><path fill="#3a414a" d="M115-194c55 1 70 41 70 98S169 2 115 4C84 4 66-9 55-30l1 105H24l-1-265h31l2 30c10-21 28-34 59-34zm-8 174c40 0 45-34 45-75s-6-73-45-74c-42 0-51 32-51 76 0 43 10 73 51 73" id="ap"/><g id="g"><use transform="matrix(0.05,0,0,0.05,0,0)" xlink:href="#aa"/><use transform="matrix(0.05,0,0,0.05,9,0)" xlink:href="#ap"/><use transform="matrix(0.05,0,0,0.05,19,0)" xlink:href="#ag"/><use transform="matrix(0.05,0,0,0.05,29,0)" xlink:href="#aj"/><use transform="matrix(0.05,0,0,0.05,38,0)" xlink:href="#X"/><use transform="matrix(0.05,0,0,0.05,41.95,0)" xlink:href="#ag"/><use transform="matrix(0.05,0,0,0.05,51.95,0)" xlink:href="#aa"/></g><path fill="#3a414a" d="M84 4C-5 8 30-112 23-190h32v120c0 31 7 50 39 49 72-2 45-101 50-169h31l1 190h-30c-1-10 1-25-2-33-11 22-28 36-60 37" id="aq"/><path fill="#3a414a" d="M115-194c53 0 69 39 70 98 0 66-23 100-70 100C84 3 66-7 56-30L54 0H23l1-261h32v101c10-23 28-34 59-34zm-8 174c40 0 45-34 45-75 0-40-5-75-45-74-42 0-51 32-51 76 0 43 10 73 51 73" id="ar"/><g id="h"><use transform="matrix(0.05,0,0,0.05,0,0)" xlink:href="#aa"/><use transform="matrix(0.05,0,0,0.05,9,0)" xlink:href="#aq"/><use transform="matrix(0.05,0,0,0.05,19,0)" xlink:href="#ar"/><use transform="matrix(0.05,0,0,0.05,29,0)" xlink:href="#aa"/><use transform="matrix(0.05,0,0,0.05,38,0)" xlink:href="#ap"/><use transform="matrix(0.05,0,0,0.05,48,0)" xlink:href="#ag"/><use transform="matrix(0.05,0,0,0.05,58,0)" xlink:href="#aj"/><use transform="matrix(0.05,0,0,0.05,67,0)" xlink:href="#X"/><use transform="matrix(0.05,0,0,0.05,70.95,0)" xlink:href="#ag"/><use transform="matrix(0.05,0,0,0.05,80.95,0)" xlink:href="#aa"/></g><path fill="#3a414a" d="M100-194c62-1 85 37 85 99 1 63-27 99-86 99S16-35 15-95c0-66 28-99 85-99zM99-20c44 1 53-31 53-75 0-43-8-75-51-75s-53 32-53 75 10 74 51 75" id="as"/><path fill="#3a414a" d="M179-190L93 31C79 59 56 82 12 73V49c39 6 53-20 64-50L1-190h34L92-34l54-156h33" id="at"/><g id="i"><use transform="matrix(0.05,0,0,0.05,0,0)" xlink:href="#ak"/><use transform="matrix(0.05,0,0,0.05,10,0)" xlink:href="#X"/><use transform="matrix(0.05,0,0,0.05,13.949999999999998,0)" xlink:href="#aa"/><use transform="matrix(0.05,0,0,0.05,22.95,0)" xlink:href="#af"/><use transform="matrix(0.05,0,0,0.05,27.950000000000003,0)" xlink:href="#as"/><use transform="matrix(0.05,0,0,0.05,37.95,0)" xlink:href="#ai"/><use transform="matrix(0.05,0,0,0.05,43.900000000000006,0)" xlink:href="#at"/></g><path fill="#3a414a" d="M141 0L90-78 38 0H4l68-98-65-92h35l48 74 47-74h35l-64 92 68 98h-35" id="au"/><path fill="#3a414a" d="M110-160c48 1 74 30 74 79 0 53-28 85-80 85-65 0-83-55-86-122-5-90 50-162 133-122 14 7 22 21 27 39l-31 6c-5-40-67-38-82-6-9 19-15 44-15 74 11-20 30-34 60-33zm-7 138c34 0 49-23 49-58s-16-56-50-56c-29 0-50 16-49 49 1 36 15 65 50 65" id="av"/><path fill="#3a414a" d="M126-127c33 6 58 20 58 59 0 88-139 92-164 29-3-8-5-16-6-25l32-3c6 27 21 44 54 44 32 0 52-15 52-46 0-38-36-46-79-43v-28c39 1 72-4 72-42 0-27-17-43-46-43-28 0-47 15-49 41l-32-3c6-42 35-63 81-64 48-1 79 21 79 65 0 36-21 52-52 59" id="aw"/><g id="j"><use transform="matrix(0.05,0,0,0.05,0,0)" xlink:href="#af"/><use transform="matrix(0.05,0,0,0.05,5,0)" xlink:href="#ag"/><use transform="matrix(0.05,0,0,0.05,15,0)" xlink:href="#au"/><use transform="matrix(0.05,0,0,0.05,24,0)" xlink:href="#af"/><use transform="matrix(0.05,0,0,0.05,29,0)" xlink:href="#al"/><use transform="matrix(0.05,0,0,0.05,34.95,0)" xlink:href="#av"/><use transform="matrix(0.05,0,0,0.05,44.95,0)" xlink:href="#am"/><use transform="matrix(0.05,0,0,0.05,54.95,0)" xlink:href="#am"/><use transform="matrix(0.05,0,0,0.05,64.95,0)" xlink:href="#aw"/><use transform="matrix(0.05,0,0,0.05,74.95,0)" xlink:href="#am"/><use transform="matrix(0.05,0,0,0.05,84.95,0)" xlink:href="#ao"/></g><g id="k"><use transform="matrix(0.05,0,0,0.05,0,0)" xlink:href="#V"/><use transform="matrix(0.05,0,0,0.05,10,0)" xlink:href="#ap"/><use transform="matrix(0.05,0,0,0.05,20,0)" xlink:href="#ap"/><use transform="matrix(0.05,0,0,0.05,30,0)" xlink:href="#as"/><use transform="matrix(0.05,0,0,0.05,40,0)" xlink:href="#X"/><use transform="matrix(0.05,0,0,0.05,43.95,0)" xlink:href="#W"/><use transform="matrix(0.05,0,0,0.05,53.95,0)" xlink:href="#af"/><use transform="matrix(0.05,0,0,0.05,58.95,0)" xlink:href="#Y"/><use transform="matrix(0.05,0,0,0.05,73.9,0)" xlink:href="#ag"/><use transform="matrix(0.05,0,0,0.05,83.9,0)" xlink:href="#W"/><use transform="matrix(0.05,0,0,0.05,93.9,0)" xlink:href="#af"/><use transform="matrix(0.05,0,0,0.05,98.9,0)" xlink:href="#aa"/></g><g id="l"><use transform="matrix(0.05,0,0,0.05,0,0)" xlink:href="#V"/><use transform="matrix(0.05,0,0,0.05,10,0)" xlink:href="#ap"/><use transform="matrix(0.05,0,0,0.05,20,0)" xlink:href="#ap"/><use transform="matrix(0.05,0,0,0.05,30,0)" xlink:href="#as"/><use transform="matrix(0.05,0,0,0.05,40,0)" xlink:href="#X"/><use transform="matrix(0.05,0,0,0.05,43.95,0)" xlink:href="#W"/><use transform="matrix(0.05,0,0,0.05,53.95,0)" xlink:href="#af"/><use transform="matrix(0.05,0,0,0.05,58.95,0)" xlink:href="#Y"/><use transform="matrix(0.05,0,0,0.05,73.9,0)" xlink:href="#ag"/><use transform="matrix(0.05,0,0,0.05,83.9,0)" xlink:href="#W"/><use transform="matrix(0.05,0,0,0.05,93.9,0)" xlink:href="#af"/><use transform="matrix(0.05,0,0,0.05,98.9,0)" xlink:href="#ad"/><use transform="matrix(0.05,0,0,0.05,108.9,0)" xlink:href="#X"/><use transform="matrix(0.05,0,0,0.05,112.85000000000001,0)" xlink:href="#ae"/></g><path fill="#3a414a" d="M63-220v92h138v28H63V0H30v-248h175v28H63" id="ax"/><g id="m"><use transform="matrix(0.05,0,0,0.05,0,0)" xlink:href="#ax"/><use transform="matrix(0.05,0,0,0.05,10.950000000000001,0)" xlink:href="#ac"/></g><g id="n"><use transform="matrix(0.05,0,0,0.05,0,0)" xlink:href="#aj"/><use transform="matrix(0.05,0,0,0.05,9,0)" xlink:href="#aq"/><use transform="matrix(0.05,0,0,0.05,19,0)" xlink:href="#aa"/><use transform="matrix(0.05,0,0,0.05,28,0)" xlink:href="#af"/><use transform="matrix(0.05,0,0,0.05,33,0)" xlink:href="#as"/><use transform="matrix(0.05,0,0,0.05,43,0)" xlink:href="#Y"/><use transform="matrix(0.05,0,0,0.05,57.95,0)" xlink:href="#ag"/><use transform="matrix(0.05,0,0,0.05,67.95,0)" xlink:href="#ai"/><use transform="matrix(0.05,0,0,0.05,73.9,0)" xlink:href="#ad"/><use transform="matrix(0.05,0,0,0.05,83.9,0)" xlink:href="#X"/><use transform="matrix(0.05,0,0,0.05,87.85000000000001,0)" xlink:href="#ae"/></g><g id="o"><use transform="matrix(0.05,0,0,0.05,0,0)" xlink:href="#ah"/><use transform="matrix(0.05,0,0,0.05,9,0)" xlink:href="#ag"/><use transform="matrix(0.05,0,0,0.05,19,0)" xlink:href="#af"/><use transform="matrix(0.05,0,0,0.05,24,0)" xlink:href="#ad"/><use transform="matrix(0.05,0,0,0.05,34,0)" xlink:href="#X"/><use transform="matrix(0.05,0,0,0.05,37.95,0)" xlink:href="#ae"/></g><g id="p"><use transform="matrix(0.05,0,0,0.05,0,0)" xlink:href="#ai"/><use transform="matrix(0.05,0,0,0.05,5.95,0)" xlink:href="#ag"/><use transform="matrix(0.05,0,0,0.05,15.949999999999998,0)" xlink:href="#aj"/><use transform="matrix(0.05,0,0,0.05,24.95,0)" xlink:href="#ag"/><use transform="matrix(0.05,0,0,0.05,34.95,0)" xlink:href="#ap"/><use transform="matrix(0.05,0,0,0.05,44.95,0)" xlink:href="#af"/><use transform="matrix(0.05,0,0,0.05,49.95,0)" xlink:href="#X"/><use transform="matrix(0.05,0,0,0.05,53.900000000000006,0)" xlink:href="#as"/><use transform="matrix(0.05,0,0,0.05,63.900000000000006,0)" xlink:href="#W"/><use transform="matrix(0.05,0,0,0.05,73.9,0)" xlink:href="#X"/><use transform="matrix(0.05,0,0,0.05,77.85000000000001,0)" xlink:href="#aa"/><use transform="matrix(0.05,0,0,0.05,86.85000000000001,0)" xlink:href="#af"/><use transform="matrix(0.05,0,0,0.05,91.85000000000001,0)" xlink:href="#ad"/><use transform="matrix(0.05,0,0,0.05,101.85000000000001,0)" xlink:href="#X"/><use transform="matrix(0.05,0,0,0.05,105.80000000000001,0)" xlink:href="#ae"/></g><g id="q"><use transform="matrix(0.05,0,0,0.05,0,0)" xlink:href="#ae"/><use transform="matrix(0.05,0,0,0.05,10,0)" xlink:href="#V"/><use transform="matrix(0.05,0,0,0.05,20,0)" xlink:href="#af"/><use transform="matrix(0.05,0,0,0.05,25,0)" xlink:href="#ag"/><use transform="matrix(0.05,0,0,0.05,35,0)" xlink:href="#ad"/><use transform="matrix(0.05,0,0,0.05,45,0)" xlink:href="#af"/><use transform="matrix(0.05,0,0,0.05,50,0)" xlink:href="#X"/><use transform="matrix(0.05,0,0,0.05,53.95,0)" xlink:href="#Y"/><use transform="matrix(0.05,0,0,0.05,68.9,0)" xlink:href="#ag"/></g><g id="r"><use transform="matrix(0.05,0,0,0.05,0,0)" xlink:href="#ae"/><use transform="matrix(0.05,0,0,0.05,10,0)" xlink:href="#V"/><use transform="matrix(0.05,0,0,0.05,20,0)" xlink:href="#af"/><use transform="matrix(0.05,0,0,0.05,25,0)" xlink:href="#ag"/><use transform="matrix(0.05,0,0,0.05,35,0)" xlink:href="#af"/><use transform="matrix(0.05,0,0,0.05,40,0)" xlink:href="#X"/><use transform="matrix(0.05,0,0,0.05,43.95,0)" xlink:href="#Y"/><use transform="matrix(0.05,0,0,0.05,58.900000000000006,0)" xlink:href="#ag"/></g><g id="s"><use transform="matrix(0.05,0,0,0.05,0,0)" xlink:href="#aj"/><use transform="matrix(0.05,0,0,0.05,9,0)" xlink:href="#V"/><use transform="matrix(0.05,0,0,0.05,19,0)" xlink:href="#W"/><use transform="matrix(0.05,0,0,0.05,29,0)" xlink:href="#aj"/><use transform="matrix(0.05,0,0,0.05,38,0)" xlink:href="#ag"/><use transform="matrix(0.05,0,0,0.05,48,0)" xlink:href="#Z"/><use transform="matrix(0.05,0,0,0.05,51.95,0)" xlink:href="#Z"/><use transform="matrix(0.05,0,0,0.05,55.900000000000006,0)" xlink:href="#ag"/><use transform="matrix(0.05,0,0,0.05,65.9,0)" xlink:href="#ae"/><use transform="matrix(0.05,0,0,0.05,75.9,0)" xlink:href="#ad"/><use transform="matrix(0.05,0,0,0.05,85.9,0)" xlink:href="#ae"/><use transform="matrix(0.05,0,0,0.05,95.9,0)" xlink:href="#V"/><use transform="matrix(0.05,0,0,0.05,105.9,0)" xlink:href="#af"/><use transform="matrix(0.05,0,0,0.05,110.9,0)" xlink:href="#ag"/><use transform="matrix(0.05,0,0,0.05,120.9,0)" xlink:href="#ad"/><use transform="matrix(0.05,0,0,0.05,130.9,0)" xlink:href="#af"/><use transform="matrix(0.05,0,0,0.05,135.9,0)" xlink:href="#X"/><use transform="matrix(0.05,0,0,0.05,139.85,0)" xlink:href="#Y"/><use transform="matrix(0.05,0,0,0.05,154.79999999999998,0)" xlink:href="#ag"/></g><g id="t"><use transform="matrix(0.05,0,0,0.05,0,0)" xlink:href="#aa"/><use transform="matrix(0.05,0,0,0.05,9,0)" xlink:href="#at"/><use transform="matrix(0.05,0,0,0.05,18,0)" xlink:href="#Y"/><use transform="matrix(0.05,0,0,0.05,32.95,0)" xlink:href="#ap"/><use transform="matrix(0.05,0,0,0.05,42.95,0)" xlink:href="#af"/><use transform="matrix(0.05,0,0,0.05,47.95,0)" xlink:href="#as"/><use transform="matrix(0.05,0,0,0.05,57.95,0)" xlink:href="#Y"/><use transform="matrix(0.05,0,0,0.05,72.9,0)" xlink:href="#aa"/></g><g id="u"><use transform="matrix(0.05,0,0,0.05,0,0)" xlink:href="#aj"/><use transform="matrix(0.05,0,0,0.05,9,0)" xlink:href="#aq"/><use transform="matrix(0.05,0,0,0.05,19,0)" xlink:href="#aa"/><use transform="matrix(0.05,0,0,0.05,28,0)" xlink:href="#af"/><use transform="matrix(0.05,0,0,0.05,33,0)" xlink:href="#as"/><use transform="matrix(0.05,0,0,0.05,43,0)" xlink:href="#Y"/><use transform="matrix(0.05,0,0,0.05,57.95,0)" xlink:href="#ag"/><use transform="matrix(0.05,0,0,0.05,67.95,0)" xlink:href="#ai"/><use transform="matrix(0.05,0,0,0.05,73.9,0)" xlink:href="#aa"/></g><g id="v"><use transform="matrix(0.05,0,0,0.05,0,0)" xlink:href="#V"/><use transform="matrix(0.05,0,0,0.05,10,0)" xlink:href="#ae"/><use transform="matrix(0.05,0,0,0.05,20,0)" xlink:href="#ae"/><use transform="matrix(0.05,0,0,0.05,30,0)" xlink:href="#ai"/><use transform="matrix(0.05,0,0,0.05,35.95,0)" xlink:href="#ag"/><use transform="matrix(0.05,0,0,0.05,45.95,0)" xlink:href="#aa"/><use transform="matrix(0.05,0,0,0.05,54.95,0)" xlink:href="#aa"/></g><path fill="#3a414a" d="M101-251c82-7 93 87 43 132L82-64C71-53 59-42 53-27h129V0H18c2-99 128-94 128-182 0-28-16-43-45-43s-46 15-49 41l-32-3c6-41 34-60 81-64" id="ay"/><g id="w"><use transform="matrix(0.05,0,0,0.05,0,0)" xlink:href="#ah"/><use transform="matrix(0.05,0,0,0.05,9,0)" xlink:href="#V"/><use transform="matrix(0.05,0,0,0.05,19,0)" xlink:href="#ai"/><use transform="matrix(0.05,0,0,0.05,24.95,0)" xlink:href="#aj"/><use transform="matrix(0.05,0,0,0.05,33.95,0)" xlink:href="#ak"/><use transform="matrix(0.05,0,0,0.05,43.95,0)" xlink:href="#V"/><use transform="matrix(0.05,0,0,0.05,53.95,0)" xlink:href="#ai"/><use transform="matrix(0.05,0,0,0.05,59.900000000000006,0)" xlink:href="#al"/><use transform="matrix(0.05,0,0,0.05,65.85000000000001,0)" xlink:href="#ay"/><use transform="matrix(0.05,0,0,0.05,75.85000000000001,0)" xlink:href="#am"/><use transform="matrix(0.05,0,0,0.05,85.85000000000001,0)" xlink:href="#am"/><use transform="matrix(0.05,0,0,0.05,95.85000000000001,0)" xlink:href="#ao"/></g><g id="x"><use transform="matrix(0.05,0,0,0.05,0,0)" xlink:href="#ag"/><use transform="matrix(0.05,0,0,0.05,10,0)" xlink:href="#Y"/><use transform="matrix(0.05,0,0,0.05,24.950000000000003,0)" xlink:href="#V"/><use transform="matrix(0.05,0,0,0.05,34.95,0)" xlink:href="#X"/><use transform="matrix(0.05,0,0,0.05,38.900000000000006,0)" xlink:href="#Z"/></g><g id="y"><use transform="matrix(0.05,0,0,0.05,0,0)" xlink:href="#ap"/><use transform="matrix(0.05,0,0,0.05,10,0)" xlink:href="#ak"/><use transform="matrix(0.05,0,0,0.05,20,0)" xlink:href="#as"/><use transform="matrix(0.05,0,0,0.05,30,0)" xlink:href="#W"/><use transform="matrix(0.05,0,0,0.05,40,0)" xlink:href="#ag"/></g><g id="z"><use transform="matrix(0.05,0,0,0.05,0,0)" xlink:href="#ag"/><use transform="matrix(0.05,0,0,0.05,10,0)" xlink:href="#Y"/><use transform="matrix(0.05,0,0,0.05,24.950000000000003,0)" xlink:href="#ap"/><use transform="matrix(0.05,0,0,0.05,34.95,0)" xlink:href="#Z"/><use transform="matrix(0.05,0,0,0.05,38.900000000000006,0)" xlink:href="#as"/><use transform="matrix(0.05,0,0,0.05,48.900000000000006,0)" xlink:href="#at"/><use transform="matrix(0.05,0,0,0.05,57.900000000000006,0)" xlink:href="#ag"/><use transform="matrix(0.05,0,0,0.05,67.9,0)" xlink:href="#ag"/><use transform="matrix(0.05,0,0,0.05,77.9,0)" xlink:href="#aa"/></g><g id="A"><use transform="matrix(0.05,0,0,0.05,0,0)" xlink:href="#ag"/><use transform="matrix(0.05,0,0,0.05,10,0)" xlink:href="#Y"/><use transform="matrix(0.05,0,0,0.05,24.950000000000003,0)" xlink:href="#ap"/><use transform="matrix(0.05,0,0,0.05,34.95,0)" xlink:href="#Z"/><use transform="matrix(0.05,0,0,0.05,38.900000000000006,0)" xlink:href="#as"/><use transform="matrix(0.05,0,0,0.05,48.900000000000006,0)" xlink:href="#at"/><use transform="matrix(0.05,0,0,0.05,57.900000000000006,0)" xlink:href="#ag"/><use transform="matrix(0.05,0,0,0.05,67.9,0)" xlink:href="#ag"/><use transform="matrix(0.05,0,0,0.05,77.9,0)" xlink:href="#ad"/><use transform="matrix(0.05,0,0,0.05,87.9,0)" xlink:href="#X"/><use transform="matrix(0.05,0,0,0.05,91.85000000000001,0)" xlink:href="#ae"/></g><g id="B"><use transform="matrix(0.05,0,0,0.05,0,0)" xlink:href="#ai"/><use transform="matrix(0.05,0,0,0.05,5.95,0)" xlink:href="#as"/><use transform="matrix(0.05,0,0,0.05,15.949999999999998,0)" xlink:href="#Z"/><use transform="matrix(0.05,0,0,0.05,19.9,0)" xlink:href="#ag"/><use transform="matrix(0.05,0,0,0.05,29.899999999999995,0)" xlink:href="#ad"/><use transform="matrix(0.05,0,0,0.05,39.9,0)" xlink:href="#X"/><use transform="matrix(0.05,0,0,0.05,43.85,0)" xlink:href="#ae"/></g><path fill="#3a414a" d="M101-234c-31-9-42 10-38 44h38v23H63V0H32v-167H5v-23h27c-7-52 17-82 69-68v24" id="az"/><g id="C"><use transform="matrix(0.05,0,0,0.05,0,0)" xlink:href="#az"/><use transform="matrix(0.05,0,0,0.05,5,0)" xlink:href="#ag"/><use transform="matrix(0.05,0,0,0.05,15,0)" xlink:href="#ag"/><use transform="matrix(0.05,0,0,0.05,25,0)" xlink:href="#aa"/></g><g id="D"><use transform="matrix(0.05,0,0,0.05,0,0)" xlink:href="#az"/><use transform="matrix(0.05,0,0,0.05,5,0)" xlink:href="#ag"/><use transform="matrix(0.05,0,0,0.05,15,0)" xlink:href="#ag"/><use transform="matrix(0.05,0,0,0.05,25,0)" xlink:href="#ad"/><use transform="matrix(0.05,0,0,0.05,35,0)" xlink:href="#X"/><use transform="matrix(0.05,0,0,0.05,38.95,0)" xlink:href="#ae"/></g><g id="E"><use transform="matrix(0.05,0,0,0.05,0,0)" xlink:href="#af"/><use transform="matrix(0.05,0,0,0.05,5,0)" xlink:href="#at"/><use transform="matrix(0.05,0,0,0.05,14,0)" xlink:href="#ap"/><use transform="matrix(0.05,0,0,0.05,24,0)" xlink:href="#ag"/></g><g id="F"><use transform="matrix(0.05,0,0,0.05,0,0)" xlink:href="#ah"/><use transform="matrix(0.05,0,0,0.05,9,0)" xlink:href="#V"/><use transform="matrix(0.05,0,0,0.05,19,0)" xlink:href="#ai"/><use transform="matrix(0.05,0,0,0.05,24.95,0)" xlink:href="#aj"/><use transform="matrix(0.05,0,0,0.05,33.95,0)" xlink:href="#ak"/><use transform="matrix(0.05,0,0,0.05,43.95,0)" xlink:href="#V"/><use transform="matrix(0.05,0,0,0.05,53.95,0)" xlink:href="#ai"/><use transform="matrix(0.05,0,0,0.05,59.900000000000006,0)" xlink:href="#al"/><use transform="matrix(0.05,0,0,0.05,65.85000000000001,0)" xlink:href="#ay"/><use transform="matrix(0.05,0,0,0.05,75.85000000000001,0)" xlink:href="#an"/><use transform="matrix(0.05,0,0,0.05,85.85000000000001,0)" xlink:href="#ao"/></g><g id="G"><use transform="matrix(0.05,0,0,0.05,0,0)" xlink:href="#aj"/><use transform="matrix(0.05,0,0,0.05,9,0)" xlink:href="#as"/><use transform="matrix(0.05,0,0,0.05,19,0)" xlink:href="#aa"/><use transform="matrix(0.05,0,0,0.05,28,0)" xlink:href="#af"/></g><g id="H"><use transform="matrix(0.05,0,0,0.05,0,0)" xlink:href="#ae"/><use transform="matrix(0.05,0,0,0.05,10,0)" xlink:href="#ag"/><use transform="matrix(0.05,0,0,0.05,20,0)" xlink:href="#aj"/><use transform="matrix(0.05,0,0,0.05,29,0)" xlink:href="#X"/><use transform="matrix(0.05,0,0,0.05,32.95,0)" xlink:href="#Y"/><use transform="matrix(0.05,0,0,0.05,47.900000000000006,0)" xlink:href="#V"/><use transform="matrix(0.05,0,0,0.05,57.900000000000006,0)" xlink:href="#Z"/></g><g id="I"><use transform="matrix(0.05,0,0,0.05,0,0)" xlink:href="#ae"/><use transform="matrix(0.05,0,0,0.05,10,0)" xlink:href="#ag"/><use transform="matrix(0.05,0,0,0.05,20,0)" xlink:href="#aa"/><use transform="matrix(0.05,0,0,0.05,29,0)" xlink:href="#aj"/><use transform="matrix(0.05,0,0,0.05,38,0)" xlink:href="#ai"/><use transform="matrix(0.05,0,0,0.05,43.95,0)" xlink:href="#X"/><use transform="matrix(0.05,0,0,0.05,47.900000000000006,0)" xlink:href="#ap"/><use transform="matrix(0.05,0,0,0.05,57.900000000000006,0)" xlink:href="#af"/><use transform="matrix(0.05,0,0,0.05,62.900000000000006,0)" xlink:href="#X"/><use transform="matrix(0.05,0,0,0.05,66.85000000000001,0)" xlink:href="#as"/><use transform="matrix(0.05,0,0,0.05,76.85000000000001,0)" xlink:href="#W"/></g><g id="J"><use transform="matrix(0.05,0,0,0.05,0,0)" xlink:href="#ap"/><use transform="matrix(0.05,0,0,0.05,10,0)" xlink:href="#V"/><use transform="matrix(0.05,0,0,0.05,20,0)" xlink:href="#at"/><use transform="matrix(0.05,0,0,0.05,29,0)" xlink:href="#Y"/><use transform="matrix(0.05,0,0,0.05,43.95,0)" xlink:href="#ag"/><use transform="matrix(0.05,0,0,0.05,53.95,0)" xlink:href="#W"/><use transform="matrix(0.05,0,0,0.05,63.95,0)" xlink:href="#af"/><use transform="matrix(0.05,0,0,0.05,68.95,0)" xlink:href="#aa"/></g><g id="K"><use transform="matrix(0.05,0,0,0.05,0,0)" xlink:href="#ap"/><use transform="matrix(0.05,0,0,0.05,10,0)" xlink:href="#V"/><use transform="matrix(0.05,0,0,0.05,20,0)" xlink:href="#at"/><use transform="matrix(0.05,0,0,0.05,29,0)" xlink:href="#Y"/><use transform="matrix(0.05,0,0,0.05,43.95,0)" xlink:href="#ag"/><use transform="matrix(0.05,0,0,0.05,53.95,0)" xlink:href="#W"/><use transform="matrix(0.05,0,0,0.05,63.95,0)" xlink:href="#af"/><use transform="matrix(0.05,0,0,0.05,68.95,0)" xlink:href="#ad"/><use transform="matrix(0.05,0,0,0.05,78.95,0)" xlink:href="#X"/><use transform="matrix(0.05,0,0,0.05,82.9,0)" xlink:href="#ae"/></g><g id="L"><use transform="matrix(0.05,0,0,0.05,0,0)" xlink:href="#af"/><use transform="matrix(0.05,0,0,0.05,5,0)" xlink:href="#ai"/><use transform="matrix(0.05,0,0,0.05,10.95,0)" xlink:href="#ag"/><use transform="matrix(0.05,0,0,0.05,20.95,0)" xlink:href="#V"/><use transform="matrix(0.05,0,0,0.05,30.950000000000003,0)" xlink:href="#af"/><use transform="matrix(0.05,0,0,0.05,35.95,0)" xlink:href="#Y"/><use transform="matrix(0.05,0,0,0.05,50.900000000000006,0)" xlink:href="#ag"/><use transform="matrix(0.05,0,0,0.05,60.900000000000006,0)" xlink:href="#W"/><use transform="matrix(0.05,0,0,0.05,70.9,0)" xlink:href="#af"/><use transform="matrix(0.05,0,0,0.05,75.9,0)" xlink:href="#ad"/><use transform="matrix(0.05,0,0,0.05,85.9,0)" xlink:href="#X"/><use transform="matrix(0.05,0,0,0.05,89.85000000000001,0)" xlink:href="#ae"/></g><g id="M"><use transform="matrix(0.05,0,0,0.05,0,0)" xlink:href="#V"/><use transform="matrix(0.05,0,0,0.05,10,0)" xlink:href="#Y"/><use transform="matrix(0.05,0,0,0.05,24.950000000000003,0)" xlink:href="#as"/><use transform="matrix(0.05,0,0,0.05,34.95,0)" xlink:href="#aq"/><use transform="matrix(0.05,0,0,0.05,44.95,0)" xlink:href="#W"/><use transform="matrix(0.05,0,0,0.05,54.95,0)" xlink:href="#af"/></g><g id="N"><use transform="matrix(0.05,0,0,0.05,0,0)" xlink:href="#Y"/><use transform="matrix(0.05,0,0,0.05,14.950000000000001,0)" xlink:href="#ag"/><use transform="matrix(0.05,0,0,0.05,24.950000000000003,0)" xlink:href="#af"/><use transform="matrix(0.05,0,0,0.05,29.950000000000003,0)" xlink:href="#ak"/><use transform="matrix(0.05,0,0,0.05,39.95,0)" xlink:href="#as"/><use transform="matrix(0.05,0,0,0.05,49.95,0)" xlink:href="#ae"/></g><g id="O"><use transform="matrix(0.05,0,0,0.05,0,0)" xlink:href="#ai"/><use transform="matrix(0.05,0,0,0.05,5.95,0)" xlink:href="#as"/><use transform="matrix(0.05,0,0,0.05,15.949999999999998,0)" xlink:href="#Z"/><use transform="matrix(0.05,0,0,0.05,19.9,0)" xlink:href="#ag"/><use transform="matrix(0.05,0,0,0.05,29.899999999999995,0)" xlink:href="#aa"/></g><g id="P"><use transform="matrix(0.05,0,0,0.05,0,0)" xlink:href="#ai"/><use transform="matrix(0.05,0,0,0.05,5.95,0)" xlink:href="#as"/><use transform="matrix(0.05,0,0,0.05,15.949999999999998,0)" xlink:href="#Z"/><use transform="matrix(0.05,0,0,0.05,19.9,0)" xlink:href="#ag"/></g><g id="Q"><use transform="matrix(0.05,0,0,0.05,0,0)" xlink:href="#af"/><use transform="matrix(0.05,0,0,0.05,5,0)" xlink:href="#ai"/><use transform="matrix(0.05,0,0,0.05,10.95,0)" xlink:href="#ag"/><use transform="matrix(0.05,0,0,0.05,20.95,0)" xlink:href="#V"/><use transform="matrix(0.05,0,0,0.05,30.950000000000003,0)" xlink:href="#af"/><use transform="matrix(0.05,0,0,0.05,35.95,0)" xlink:href="#Y"/><use transform="matrix(0.05,0,0,0.05,50.900000000000006,0)" xlink:href="#ag"/><use transform="matrix(0.05,0,0,0.05,60.900000000000006,0)" xlink:href="#W"/><use transform="matrix(0.05,0,0,0.05,70.9,0)" xlink:href="#af"/><use transform="matrix(0.05,0,0,0.05,75.9,0)" xlink:href="#aa"/></g><path fill="#3a414a" d="M177-190C167-65 218 103 67 71c-23-6-38-20-44-43l32-5c15 47 100 32 89-28v-30C133-14 115 1 83 1 29 1 15-40 15-95c0-56 16-97 71-98 29-1 48 16 59 35 1-10 0-23 2-32h30zM94-22c36 0 50-32 50-73 0-42-14-75-50-75-39 0-46 34-46 75s6 73 46 73" id="aA"/><g id="R"><use transform="matrix(0.05,0,0,0.05,0,0)" xlink:href="#ae"/><use transform="matrix(0.05,0,0,0.05,10,0)" xlink:href="#X"/><use transform="matrix(0.05,0,0,0.05,13.949999999999998,0)" xlink:href="#V"/><use transform="matrix(0.05,0,0,0.05,23.95,0)" xlink:href="#aA"/><use transform="matrix(0.05,0,0,0.05,33.95,0)" xlink:href="#W"/><use transform="matrix(0.05,0,0,0.05,43.95,0)" xlink:href="#as"/><use transform="matrix(0.05,0,0,0.05,53.95,0)" xlink:href="#aa"/><use transform="matrix(0.05,0,0,0.05,62.95,0)" xlink:href="#X"/><use transform="matrix(0.05,0,0,0.05,66.9,0)" xlink:href="#aa"/></g><g id="S"><use transform="matrix(0.05,0,0,0.05,0,0)" xlink:href="#Y"/><use transform="matrix(0.05,0,0,0.05,14.950000000000001,0)" xlink:href="#ag"/><use transform="matrix(0.05,0,0,0.05,24.950000000000003,0)" xlink:href="#ae"/><use transform="matrix(0.05,0,0,0.05,34.95,0)" xlink:href="#X"/><use transform="matrix(0.05,0,0,0.05,38.900000000000006,0)" xlink:href="#aj"/><use transform="matrix(0.05,0,0,0.05,47.900000000000006,0)" xlink:href="#V"/><use transform="matrix(0.05,0,0,0.05,57.900000000000006,0)" xlink:href="#af"/><use transform="matrix(0.05,0,0,0.05,62.900000000000006,0)" xlink:href="#X"/><use transform="matrix(0.05,0,0,0.05,66.85000000000001,0)" xlink:href="#as"/><use transform="matrix(0.05,0,0,0.05,76.85000000000001,0)" xlink:href="#W"/></g><path fill="#3a414a" d="M206 0h-36l-40-164L89 0H53L-1-190h32L70-26l43-164h34l41 164 42-164h31" id="aB"/><path fill="#3a414a" d="M145-31C134-9 116 4 85 4 32 4 16-35 15-94c0-59 17-99 70-100 32-1 48 14 60 33 0-11-1-24 2-32h30l-1 268h-32zM93-21c41 0 51-33 51-76s-8-73-50-73c-40 0-46 35-46 75s5 74 45 74" id="aC"/><g id="T"><use transform="matrix(0.05,0,0,0.05,0,0)" xlink:href="#az"/><use transform="matrix(0.05,0,0,0.05,5,0)" xlink:href="#as"/><use transform="matrix(0.05,0,0,0.05,15,0)" xlink:href="#Z"/><use transform="matrix(0.05,0,0,0.05,18.95,0)" xlink:href="#Z"/><use transform="matrix(0.05,0,0,0.05,22.9,0)" xlink:href="#as"/><use transform="matrix(0.05,0,0,0.05,32.9,0)" xlink:href="#aB"/><use transform="matrix(0.05,0,0,0.05,45.85,0)" xlink:href="#ad"/><use transform="matrix(0.05,0,0,0.05,55.85,0)" xlink:href="#aq"/><use transform="matrix(0.05,0,0,0.05,65.85,0)" xlink:href="#ap"/><use transform="matrix(0.05,0,0,0.05,75.85,0)" xlink:href="#ad"/><use transform="matrix(0.05,0,0,0.05,85.85,0)" xlink:href="#ai"/><use transform="matrix(0.05,0,0,0.05,91.8,0)" xlink:href="#ag"/><use transform="matrix(0.05,0,0,0.05,101.8,0)" xlink:href="#aC"/><use transform="matrix(0.05,0,0,0.05,111.80000000000001,0)" xlink:href="#aq"/><use transform="matrix(0.05,0,0,0.05,121.80000000000001,0)" xlink:href="#X"/><use transform="matrix(0.05,0,0,0.05,125.75,0)" xlink:href="#ai"/><use transform="matrix(0.05,0,0,0.05,131.7,0)" xlink:href="#ag"/><use transform="matrix(0.05,0,0,0.05,141.7,0)" xlink:href="#ae"/></g><g id="U"><use transform="matrix(0.05,0,0,0.05,0,0)" xlink:href="#ar"/><use transform="matrix(0.05,0,0,0.05,10,0)" xlink:href="#as"/><use transform="matrix(0.05,0,0,0.05,20,0)" xlink:href="#as"/><use transform="matrix(0.05,0,0,0.05,30,0)" xlink:href="#Z"/><use transform="matrix(0.05,0,0,0.05,33.95,0)" xlink:href="#ag"/><use transform="matrix(0.05,0,0,0.05,43.95,0)" xlink:href="#V"/><use transform="matrix(0.05,0,0,0.05,53.95,0)" xlink:href="#W"/></g></defs></g></svg>